<svg width="40.000000" height="40.000000" viewBox="0 0 40 40" fill="none" xmlns="http://www.w3.org/2000/svg" xmlns:xlink="http://www.w3.org/1999/xlink">
	<desc>
			Created with Pixso.
	</desc>
	<defs>
		<clipPath id="clip60_431">
			<rect id="Facebook" width="40.000000" height="40.000000" fill="white" fill-opacity="0"/>
		</clipPath>
	</defs>
	<rect id="Facebook" width="40.000000" height="40.000000" fill="#FFFFFF" fill-opacity="0"/>
	<g clip-path="url(#clip60_431)">
		<path id="Vector" d="M25 3.3335C22.7899 3.3335 20.6703 4.21143 19.1075 5.77441C17.5447 7.33691 16.6667 9.45654 16.6667 11.667L16.6667 16.667L11.6667 16.667L11.6667 23.3335L16.6667 23.3335L16.6667 36.667L23.3334 36.667L23.3334 23.3335L28.3334 23.3335L30 16.667L23.3334 16.667L23.3334 11.667C23.3334 11.2246 23.5089 10.8008 23.8215 10.4883C24.1341 10.1758 24.558 10 25 10L30 10L30 3.3335L25 3.3335Z" stroke="#000000" stroke-opacity="1.000000" stroke-width="4.000000" stroke-linejoin="round"/>
	</g>
</svg>
