<svg width="45.000000" height="45.000000" viewBox="0 0 45 45" fill="none" xmlns="http://www.w3.org/2000/svg" xmlns:xlink="http://www.w3.org/1999/xlink">
	<desc>
			Created with Pixso.
	</desc>
	<defs>
		<clipPath id="clip60_499">
			<rect id="Frame" width="45.000000" height="45.000000" fill="white" fill-opacity="0"/>
		</clipPath>
	</defs>
	<rect id="Frame" width="45.000000" height="45.000000" fill="#FFFFFF" fill-opacity="0"/>
	<g clip-path="url(#clip60_499)">
		<path id="Vector" d="M34.825 6.78546C33.5735 6.26691 32.2321 6 30.8774 6C29.5228 6 28.1814 6.26691 26.9299 6.78546C25.6784 7.30402 24.5414 8.06409 23.5837 9.02216L21.5962 11.0096L19.6087 9.02216C17.6743 7.08777 15.0506 6.00098 12.3149 6.00098C9.57922 6.00098 6.9556 7.08777 5.02118 9.02216C3.08676 10.9566 2 13.5803 2 16.3159C2 19.0516 3.08676 21.6752 5.02118 23.6097L7.00867 25.5972L21.5962 40.1847L36.1837 25.5972L38.1712 23.6097C39.1293 22.652 39.8893 21.515 40.4079 20.2635C40.9265 19.012 41.1934 17.6706 41.1934 16.3159C41.1934 14.9612 40.9265 13.6199 40.4079 12.3684C39.8893 11.1169 39.1293 9.97986 38.1712 9.02216C37.2135 8.06409 36.0764 7.30402 34.825 6.78546Z" stroke="#FFFFFF" stroke-opacity="1.000000" stroke-width="5.000000" stroke-linejoin="round"/>
	</g>
</svg>
