<svg width="40.000000" height="40.000000" viewBox="0 0 40 40" fill="none" xmlns="http://www.w3.org/2000/svg" xmlns:xlink="http://www.w3.org/1999/xlink">
	<desc>
			Created with Pixso.
	</desc>
	<defs>
		<clipPath id="clip60_433">
			<rect id="Instagram" width="40.000000" height="40.000000" fill="white" fill-opacity="0"/>
		</clipPath>
	</defs>
	<rect id="Instagram" width="40.000000" height="40.000000" fill="#FFFFFF" fill-opacity="0"/>
	<g clip-path="url(#clip60_433)">
		<path id="Vector" d="M28.3333 3.3335C32.9357 3.3335 36.6666 7.06445 36.6666 11.667L36.6666 28.3335C36.6666 32.936 32.9357 36.667 28.3333 36.667L11.6666 36.667C7.06427 36.667 3.33331 32.936 3.33331 28.3335L3.33331 11.667C3.33331 7.06445 7.06427 3.3335 11.6666 3.3335L28.3333 3.3335Z" stroke="#000000" stroke-opacity="1.000000" stroke-width="4.000000" stroke-linejoin="round"/>
		<path id="Vector" d="M25.9896 22.9985C25.3438 24.2432 24.3219 25.2524 23.0694 25.8828C21.8169 26.5132 20.3974 26.7329 19.013 26.5098C17.6286 26.2871 16.3496 25.6333 15.3581 24.6421C14.3665 23.6504 13.7129 22.3716 13.4901 20.9868C13.2674 19.6025 13.4868 18.1831 14.1172 16.9307C14.7477 15.6782 15.757 14.6562 17.0017 14.0103C18.2463 13.3647 19.6629 13.1274 21.05 13.3335C22.4649 13.543 23.7748 14.2026 24.7862 15.2139C25.7976 16.2251 26.4569 17.5352 26.6667 18.9502C26.8724 20.3369 26.6355 21.7539 25.9896 22.9985Z" stroke="#000000" stroke-opacity="1.000000" stroke-width="4.000000" stroke-linejoin="round"/>
		<path id="Vector" d="M29.1667 10.8335L29.1834 10.8335" stroke="#000000" stroke-opacity="1.000000" stroke-width="4.000000" stroke-linejoin="round" stroke-linecap="round"/>
	</g>
</svg>
