<svg width="40.000000" height="40.000000" viewBox="0 0 40 40" fill="none" xmlns="http://www.w3.org/2000/svg" xmlns:xlink="http://www.w3.org/1999/xlink">
	<desc>
			Created with Pixso.
	</desc>
	<defs>
		<clipPath id="clip60_437">
			<rect id="Twitter" width="40.000000" height="40.000000" fill="white" fill-opacity="0"/>
		</clipPath>
	</defs>
	<rect id="Twitter" width="40.000000" height="40.000000" fill="#FFFFFF" fill-opacity="0"/>
	<g clip-path="url(#clip60_437)">
		<path id="Vector" d="M33.1 7.55029C32.0963 6.396 30.7622 5.57812 29.2784 5.20654C27.7946 4.83545 26.2325 4.92871 24.8035 5.47412C23.3745 6.01953 22.1474 6.99072 21.2883 8.25635C20.4292 9.52197 19.9795 11.0205 20 12.5503L20 14.2168C17.0711 14.293 14.1688 13.6431 11.5517 12.3257C8.93459 11.0088 6.68388 9.06445 5.00002 6.66699C5.00002 6.66699 -1.66665 21.667 13.3334 28.3335C9.9009 30.6636 5.81195 31.8315 1.66669 31.667C16.6667 40 35 31.667 35 12.5C34.9985 12.0361 34.9538 11.5728 34.8667 11.1167C36.5677 9.43945 37.7681 7.32129 38.3334 5C36.7373 6.12598 34.9702 6.98682 33.1 7.55029Z" stroke="#000000" stroke-opacity="1.000000" stroke-width="4.000000" stroke-linejoin="round"/>
	</g>
</svg>
